<svg width="81" height="77" viewBox="0 0 81 77" fill="none" xmlns="http://www.w3.org/2000/svg">
<g clip-path="url(#clip0)">
<path d="M79.8836 66.0074L70.457 57.9896C79.6773 42.0494 76.4974 21.2077 62.0935 8.95768C46.06 -4.6771 22.2007 -2.50354 8.80226 13.8128C-4.59615 30.1291 -2.46028 54.4094 13.5732 68.0442C27.9795 80.2942 48.6975 79.7765 62.4751 67.7096L71.9017 75.7249C73.2192 76.8434 75.1775 76.6651 76.2767 75.3268L80.2748 70.4595C81.3764 69.1212 81.2012 67.1259 79.8836 66.0074ZM64.7261 40.5719L57.9921 43.7687C56.941 44.2669 56.5186 45.5613 57.0634 46.6017L60.5624 53.2738C61.3639 54.8001 60.0656 56.5903 58.3953 56.2606L51.0998 54.8197C49.9622 54.595 48.8727 55.3887 48.7119 56.5561L47.6896 64.0463C47.4544 65.7607 45.3713 66.4323 44.2098 65.1673L39.1389 59.6381C38.3493 58.776 37.0078 58.7663 36.2038 59.6137L31.0489 65.0622C29.8682 66.3102 27.7947 65.6044 27.5859 63.8875L26.6788 56.3802C26.5372 55.2104 25.4597 54.3996 24.3197 54.6072L17.0026 55.9309C15.3275 56.2337 14.0555 54.424 14.8811 52.9099L18.4833 46.294C19.0448 45.2634 18.6417 43.9617 17.5977 43.4464L10.9141 40.1421C9.38302 39.385 9.39982 37.1602 10.9429 36.4275L17.6769 33.2307C18.7281 32.7325 19.1504 31.4381 18.6057 30.3977L15.1067 23.7281C14.3051 22.2017 15.6035 20.4116 17.2738 20.7413L24.5693 22.1822C25.7069 22.4069 26.7964 21.6131 26.9572 20.4458L27.9795 12.9556C28.2147 11.2411 30.2978 10.5695 31.4593 11.8346L36.5302 17.3637C37.3198 18.2258 38.6613 18.2356 39.4652 17.3881L44.6201 11.9396C45.8009 10.6916 47.8743 11.3974 48.0831 13.1143L48.9903 20.6216C49.1319 21.7914 50.2094 22.6022 51.3493 22.3946L58.6665 21.071C60.3416 20.7681 61.6135 22.5778 60.788 24.092L57.1858 30.7079C56.6242 31.7385 57.0274 33.0402 58.0713 33.5555L64.7549 36.8598C66.2837 37.6168 66.2669 39.8417 64.7261 40.5719Z" fill="#193F78"/>
</g>
<defs>
<clipPath id="clip0">
<rect width="81" height="77" fill="white"/>
</clipPath>
</defs>
</svg>
